<svg width="18" height="18" viewBox="0 0 18 18" fill="none" xmlns="http://www.w3.org/2000/svg">
<path d="M9.00008 17.3337C4.39771 17.3337 0.666748 13.6027 0.666748 9.00033C0.666748 4.39795 4.39771 0.666992 9.00008 0.666992C13.6024 0.666992 17.3334 4.39795 17.3334 9.00033C17.3334 13.6027 13.6024 17.3337 9.00008 17.3337ZM7.09176 15.3898C6.28961 13.6886 5.79785 11.8122 5.68951 9.83366H2.38499C2.71508 12.4807 4.59707 14.6459 7.09176 15.3898ZM7.359 9.83366C7.48433 11.866 8.06492 13.7751 9.00008 15.4603C9.93525 13.7751 10.5158 11.866 10.6412 9.83366H7.359ZM15.6152 9.83366H12.3107C12.2023 11.8122 11.7106 13.6886 10.9084 15.3898C13.4031 14.6459 15.2851 12.4807 15.6152 9.83366ZM2.38499 8.16699H5.68951C5.79785 6.18847 6.28961 4.31205 7.09176 2.61079C4.59707 3.35477 2.71508 5.51991 2.38499 8.16699ZM7.359 8.16699H10.6412C10.5158 6.13468 9.93525 4.22553 9.00008 2.54032C8.06492 4.22553 7.48433 6.13468 7.359 8.16699ZM10.9084 2.61079C11.7106 4.31205 12.2023 6.18847 12.3107 8.16699H15.6152C15.2851 5.51991 13.4031 3.35477 10.9084 2.61079Z" fill="#237133"/>
</svg>
